<?xml version="1.0" encoding="utf-8"?>
<!-- Generator: Adobe Illustrator 16.0.0, SVG Export Plug-In . SVG Version: 6.00 Build 0)  -->
<!DOCTYPE svg PUBLIC "-//W3C//DTD SVG 1.1//EN" "http://www.w3.org/Graphics/SVG/1.1/DTD/svg11.dtd">
<svg version="1.1" id="Layer_1" xmlns="http://www.w3.org/2000/svg" xmlns:xlink="http://www.w3.org/1999/xlink" x="0px" y="0px"
	 width="486.5px" height="503.5px" viewBox="0 0 486.5 503.5" enable-background="new 0 0 486.5 503.5" xml:space="preserve">
<path d="M142.8,28.8H61.2c-22.542,0-40.8,18.258-40.8,40.8v81.6c0,22.542,18.258,40.8,40.8,40.8h81.6
	c22.542,0,40.8-18.258,40.8-40.8V69.6C183.6,47.058,165.342,28.8,142.8,28.8z M142.8,151.2H61.2V69.6h81.6V151.2z M122.4,130.8H81.6
	V90h40.8V130.8z"/>
<path d="M142.8,314.4H61.2c-22.542,0-40.8,18.258-40.8,40.8v81.599c0,22.543,18.258,40.801,40.8,40.801h81.6
	c22.542,0,40.8-18.258,40.8-40.801V355.2C183.6,332.658,165.342,314.4,142.8,314.4z M142.8,436.799H61.2V355.2h81.6V436.799z
	 M122.4,416.4H81.6v-40.8h40.8V416.4z"/>
<path d="M428.399,28.8h-81.6c-22.542,0-40.8,18.258-40.8,40.8v81.6c0,22.542,18.258,40.8,40.8,40.8h81.6
	c22.542,0,40.801-18.258,40.801-40.8V69.6C469.2,47.058,450.941,28.8,428.399,28.8z M428.399,151.2h-81.6V69.6h81.6V151.2z
	 M408,130.8h-40.8V90H408V130.8z"/>
<rect x="224.4" y="69.6" width="40.8" height="40.8"/>
<rect x="224.4" y="151.2" width="40.8" height="40.8"/>
<rect x="224.4" y="232.8" width="40.8" height="40.8"/>
<rect x="142.8" y="232.8" width="40.8" height="40.8"/>
<rect x="61.2" y="232.8" width="40.8" height="40.8"/>
<rect x="306" y="232.8" width="40.8" height="40.8"/>
<rect x="387.6" y="232.8" width="40.8" height="40.8"/>
<rect x="265.2" y="273.6" width="40.8" height="40.8"/>
<rect x="346.8" y="273.6" width="40.8" height="40.8"/>
<rect x="306" y="314.4" width="40.8" height="40.8"/>
<rect x="224.4" y="314.4" width="40.8" height="40.8"/>
<rect x="265.2" y="355.2" width="40.8" height="40.8"/>
<rect x="306" y="396" width="40.8" height="40.799"/>
<rect x="265.2" y="436.799" width="40.8" height="40.801"/>
<rect x="428.399" y="273.6" width="40.801" height="40.8"/>
<rect x="428.399" y="355.2" width="40.801" height="40.8"/>
<rect x="346.8" y="355.2" width="40.8" height="40.8"/>
<rect x="346.8" y="436.799" width="40.8" height="40.801"/>
<rect x="387.6" y="396" width="40.8" height="40.799"/>
<rect x="387.6" y="314.4" width="40.8" height="40.8"/>
<rect x="224.4" y="396" width="40.8" height="40.799"/>
</svg>
